<svg width="512" height="512" viewBox="0 0 512 512" fill="none" xmlns="http://www.w3.org/2000/svg">
<rect width="512" height="512" fill="black"/>
<path d="M245.333 362.667C298.353 362.667 341.333 319.686 341.333 266.667C341.333 213.647 298.353 170.667 245.333 170.667C192.314 170.667 149.333 213.647 149.333 266.667C149.333 319.686 192.314 362.667 245.333 362.667Z" stroke="white" stroke-width="20" stroke-linecap="round" stroke-linejoin="round"/>
<path d="M336 229.333L355.2 210.133C357.587 207.755 359.48 204.929 360.772 201.817C362.064 198.705 362.73 195.369 362.73 192C362.73 188.631 362.064 185.294 360.772 182.183C359.48 179.071 357.587 176.245 355.2 173.867L338.133 156.8C333.316 152.006 326.796 149.315 320 149.315C313.204 149.315 306.684 152.006 301.867 156.8L282.667 176" stroke="white" stroke-width="20" stroke-linecap="round" stroke-linejoin="round"/>
<path d="M362.667 149.333L346.667 165.333" stroke="white" stroke-width="20" stroke-linecap="round" stroke-linejoin="round"/>
</svg>
